<?xml version="1.0" standalone="no"?>
<!DOCTYPE svg PUBLIC "-//W3C//DTD SVG 20010904//EN"
 "http://www.w3.org/TR/2001/REC-SVG-20010904/DTD/svg10.dtd">
<svg version="1.0" xmlns="http://www.w3.org/2000/svg"
 width="480.000000pt" height="480.000000pt" viewBox="0 0 480.000000 480.000000"
 preserveAspectRatio="xMidYMid meet">

<g transform="translate(0.000000,480.000000) scale(0.100000,-0.100000)"
fill="#000000" stroke="none">
<path d="M0 2400 l0 -2400 883 1 c789 0 876 2 828 15 -178 48 -321 200 -360
382 -8 38 -11 601 -10 2010 0 1817 1 1962 17 2023 43 164 188 309 353 353 48
13 -38 15 -828 15 l-883 1 0 -2400z"/>
<path d="M3089 4784 c177 -47 322 -201 360 -382 8 -38 11 -601 10 -2010 0
-1817 -1 -1962 -17 -2023 -44 -165 -187 -308 -355 -354 -46 -12 52 -14 831
-14 l882 -1 0 2400 0 2400 -882 -1 c-790 0 -877 -2 -829 -15z"/>
<path d="M1739 4666 c-103 -27 -199 -111 -247 -214 l-27 -57 0 -1995 0 -1995
27 -57 c37 -80 107 -152 187 -191 l66 -32 605 -3 c538 -2 603 -1 584 12 -48
34 -52 85 -28 359 6 62 4 81 -9 95 -10 11 -15 35 -14 68 1 43 -8 66 -57 160
-52 97 -57 114 -52 151 4 30 0 56 -15 90 -17 42 -33 58 -111 114 -271 191
-530 479 -720 800 l-63 106 -48 9 c-47 9 -49 11 -67 59 -10 28 -49 114 -87
192 -100 203 -110 267 -67 454 12 53 25 81 50 109 21 22 34 48 34 64 0 25 -1
26 -67 26 -38 0 -74 4 -82 9 -14 9 -51 111 -51 142 0 34 54 178 119 318 38 80
80 178 95 216 14 39 46 106 71 149 89 156 141 198 271 215 147 20 239 41 251
57 6 9 15 42 18 73 4 31 9 64 11 74 3 9 1 17 -4 17 -13 0 -32 55 -32 91 0 40
10 59 30 59 15 0 19 12 25 70 9 91 38 148 90 177 l40 23 -340 -1 c-237 0 -354
-4 -386 -13z m97 -3866 l43 -145 0 148 1 147 60 0 60 0 0 -285 0 -286 -67 3
-66 3 -41 150 -41 150 -3 -152 -3 -153 -59 0 -60 0 0 285 0 286 66 -3 67 -3
43 -145z m505 112 c26 -29 29 -39 29 -103 0 -65 -2 -73 -29 -100 -16 -16 -26
-29 -22 -29 5 0 20 -12 34 -26 52 -52 48 -172 -8 -232 l-33 -37 -136 -3 -136
-4 0 287 0 287 136 -4 136 -3 29 -33z m332 16 c3 -13 27 -135 52 -273 25 -137
48 -256 50 -262 3 -10 -15 -13 -70 -13 l-75 0 0 38 c0 72 -7 82 -56 82 l-44 0
0 -37 c0 -78 -5 -83 -76 -83 -35 0 -64 4 -64 10 0 5 23 131 50 281 28 150 50
273 50 275 0 2 40 4 89 4 84 0 89 -1 94 -22z"/>
<path d="M2180 790 l0 -61 32 3 c25 2 35 9 42 31 16 44 -3 81 -42 85 l-32 3 0
-61z"/>
<path d="M2180 554 l0 -75 38 3 37 3 3 58 c3 67 -8 87 -49 87 l-29 0 0 -76z"/>
<path d="M2566 733 c-4 -38 -9 -83 -12 -100 -6 -32 -5 -33 26 -33 28 0 32 3
27 23 -3 12 -9 57 -12 100 -4 42 -11 77 -15 77 -4 0 -10 -30 -14 -67z"/>
<path d="M2645 4662 c41 -26 100 -82 114 -109 17 -33 13 -107 -9 -164 -13 -36
-16 -57 -10 -69 11 -21 -28 -103 -64 -135 -13 -11 -35 -40 -49 -65 -14 -25
-37 -55 -51 -67 -38 -33 -32 -49 24 -78 28 -14 67 -41 88 -60 20 -19 66 -56
102 -82 115 -85 157 -181 170 -388 11 -195 42 -341 96 -457 33 -71 50 -126 64
-205 11 -59 20 -109 20 -110 0 -2 15 -9 33 -17 19 -7 45 -25 60 -40 14 -14 31
-26 36 -26 6 0 23 -24 38 -52 l28 -53 3 185 c1 102 1 529 0 950 l-3 765 -23
57 c-33 81 -108 160 -190 200 l-66 33 -221 3 c-220 3 -220 3 -190 -16z"/>
<path d="M2632 3371 c-33 -22 -67 -52 -75 -68 -24 -47 -107 -264 -107 -280 0
-8 11 -24 25 -35 37 -29 47 -54 109 -272 41 -146 53 -202 45 -212 -8 -9 -4
-40 15 -115 23 -92 39 -186 66 -409 8 -64 20 -96 83 -220 80 -156 89 -187 132
-438 24 -143 28 -157 66 -213 50 -73 57 -114 34 -215 -19 -86 -16 -162 11
-255 9 -30 17 -70 19 -89 1 -19 14 -75 29 -124 40 -135 34 -210 -22 -268 -34
-37 -14 -36 63 1 63 30 140 102 170 162 45 85 45 90 44 1004 0 677 -3 866 -12
851 -31 -50 -105 -118 -156 -143 -49 -24 -68 -28 -146 -28 -103 0 -153 19
-228 85 -177 156 -134 454 82 557 31 14 58 28 60 29 2 2 -32 75 -74 164 -77
159 -78 163 -118 365 -23 113 -44 205 -48 205 -3 0 -33 -18 -67 -39z"/>
</g>
</svg>
